<svg width="120mm" height="380.783" viewBox="0 0 120 100.749" xmlns="http://www.w3.org/2000/svg"><path style="fill:#daecfa;stroke-width:.264583;fill-opacity:.95" d="M59.397 100.647H33.398l13-22.515z" transform="translate(-34.97 -33.376) scale(1.07697)"/><path style="fill:#daecfa;fill-opacity:.95;stroke-width:.264583" d="M59.397 100.647H33.398l13-22.515z" transform="matrix(1.07697 0 0 -1.07697 -19.97 159.163)"/><path style="fill:#dbeefc;stroke-width:.264583;fill-opacity:.95" transform="matrix(1.07697 0 0 -1.07697 -49.97 159.163)" d="M59.397 100.647h-13V78.132Z"/><path style="fill:#dbeefb;fill-opacity:.95;stroke-width:.264583" d="M59.397 100.647H33.398l13-22.515z" transform="translate(-4.97 -33.376) scale(1.07697)"/><path style="fill:#cce7fb;fill-opacity:.95;stroke-width:.264583" d="M59.397 100.647H33.398l13-22.515z" transform="matrix(1.07697 0 0 -1.07697 10.03 159.163)"/><path style="fill:#daecfa;fill-opacity:.95;stroke-width:.264583" d="M59.397 100.647H33.398l13-22.515z" transform="translate(25.03 -33.376) scale(1.07697)"/><path style="fill:#d8ebfa;stroke-width:.264583;fill-opacity:.95" d="M59.397 100.647H33.398l13-22.515z" transform="matrix(1.07697 0 0 -1.07697 40.03 159.163)"/><path style="fill:#daecfa;fill-opacity:.95;stroke-width:.264583" d="M59.397 100.647H33.398l13-22.515z" transform="translate(55.03 -33.376) scale(1.07697)"/><path style="fill:#dceffd;stroke-width:.264583;fill-opacity:.95" transform="translate(-49.97 -8.146) scale(1.07697)" d="M59.397 100.647H46.313l.085-22.515z"/><path style="fill:#e3f1fc;fill-opacity:.95;stroke-width:.264583" d="M59.397 100.647H33.398l13-22.515z" transform="matrix(1.07697 0 0 -1.07697 -34.97 184.394)"/><path style="fill:#d8ebfa;stroke-width:.264583;fill-opacity:.95" d="M59.397 100.647H33.398l13-22.515z" transform="translate(-19.97 -8.146) scale(1.07697)"/><path style="fill:#daecfa;stroke-width:.264583;fill-opacity:.95" d="M59.397 100.647H33.398l13-22.515z" transform="matrix(1.07697 0 0 -1.07697 -4.97 184.394)"/><path style="fill:#e3f1fc;fill-opacity:.95;stroke-width:.264583" d="M59.397 100.647H33.398l13-22.515z" transform="translate(10.03 -8.146) scale(1.07697)"/><path style="fill:#dbeefb;fill-opacity:.95;stroke-width:.264583" d="M59.397 100.647H33.398l13-22.515z" transform="matrix(1.07697 0 0 -1.07697 25.03 184.394)"/><path style="fill:#daecfb;fill-opacity:.95;stroke-width:.264583" d="M59.397 100.647H33.398l13-22.515z" transform="translate(40.03 -8.146) scale(1.07697)"/><path style="fill:#e3f1fc;stroke-width:.264583;fill-opacity:.95" d="M59.397 100.647H33.398l13-22.515z" transform="matrix(1.07697 0 0 -1.07697 55.03 184.394)"/><path style="fill:#daecfb;stroke-width:.264583;fill-opacity:.95" d="M59.397 100.647H33.398l13-22.515z" transform="translate(-34.97 -83.708) scale(1.07697)"/><path style="fill:#e3f1fc;fill-opacity:.95;stroke-width:.264583" d="M59.397 100.647H33.398l13-22.515z" transform="matrix(1.07697 0 0 -1.07697 -19.97 108.832)"/><path style="fill:#e6f3fc;stroke-width:.264583;fill-opacity:.95" transform="matrix(1.07697 0 0 -1.07697 -49.97 108.832)" d="M59.397 100.647h-13V78.132z"/><path style="fill:#daecfa;fill-opacity:.95;stroke-width:.264583" d="M59.397 100.647H33.398l13-22.515z" transform="translate(-4.97 -83.708) scale(1.07697)"/><path style="fill:#daecfb;fill-opacity:.95;stroke-width:.264583" d="M59.397 100.647H33.398l13-22.515z" transform="matrix(1.07697 0 0 -1.07697 10.03 108.832)"/><path style="fill:#deeffb;fill-opacity:.95;stroke-width:.264583" d="M59.397 100.647H33.398l13-22.515z" transform="translate(25.03 -83.708) scale(1.07697)"/><path style="fill:#e3f1fc;stroke-width:.264583;fill-opacity:.95" d="M59.397 100.647H33.398l13-22.515z" transform="matrix(1.07697 0 0 -1.07697 40.03 108.832)"/><path style="fill:#daecfb;fill-opacity:.95;stroke-width:.264583" d="M59.397 100.647H33.398l13-22.515z" transform="translate(55.03 -83.708) scale(1.07697)"/><path style="fill:#d9ecfb;stroke-width:.264583;fill-opacity:.95" transform="translate(-49.97 -58.477) scale(1.07697)" d="M59.397 100.647h-13V78.132Z"/><path style="fill:#dbeefc;stroke-width:.284948;fill-opacity:.95" d="M135 77.47h14v24.248z" transform="translate(-29 -26.7)"/><path style="fill:#dceffd;stroke-width:.284948;fill-opacity:.95" d="M135 126.95h14.092L149 102.7z" transform="translate(-29 -26.7)"/><path style="fill:#e6f3fc;stroke-width:.284948;fill-opacity:.95" d="M135 27.138h14v24.249Z" transform="translate(-29 -26.7)"/><path style="fill:#d9ecfb;stroke-width:.284948;fill-opacity:.95" d="M135 76.618h14V52.369Z" transform="translate(-29 -26.7)"/><path style="fill:#deeffb;fill-opacity:.95;stroke-width:.264583" d="M59.397 100.647H33.398l13-22.515z" transform="matrix(1.07697 0 0 -1.07697 -34.97 134.063)"/><path style="fill:#e3f1fc;stroke-width:.264583;fill-opacity:.95" d="M59.397 100.647H33.398l13-22.515z" transform="translate(-19.97 -58.477) scale(1.07697)"/><path style="fill:#daecfa;fill-opacity:.95;stroke-width:.264583" d="M59.397 100.647H33.398l13-22.515z" transform="matrix(1.07697 0 0 -1.07697 -4.97 134.063)"/><path style="fill:#cfe6f9;fill-opacity:.95;stroke-width:.264583" d="M59.397 100.647H33.398l13-22.515z" transform="translate(10.03 -58.477) scale(1.07697)"/><path style="fill:#d8ebfa;fill-opacity:.95;stroke-width:.264583" d="M59.397 100.647H33.398l13-22.515z" transform="matrix(1.07697 0 0 -1.07697 25.03 134.063)"/><path style="fill:#deeffb;fill-opacity:.95;stroke-width:.264583" d="M59.397 100.647H33.398l13-22.515z" transform="translate(40.03 -58.477) scale(1.07697)"/><path style="fill:#dbeefb;fill-opacity:.95;stroke-width:.264583" d="M59.397 100.647H33.398l13-22.515z" transform="matrix(1.07697 0 0 -1.07697 55.03 134.063)"/></svg>