<svg
    width="1200"
    height="800"
    fill="none"
    xmlns="http://www.w3.org/2000/svg"
    version="1.1"
    viewBox="0 0 1000 350"
>
    <path
        d="M83.74,45.24c59.82-2.54,111.78-3.47,153.78,44.75,64.75,74.34,23.93,193.62-72.48,212.55-19.97,3.92-60.96,4.35-81.58,2.51-24.52-2.2-26.51-38.62,2-41.08,37.46-3.23,70.68,8.42,104.44-15.56,48.75-34.62,51.07-103.91,5.62-142.43-34.98-29.65-67.94-16-108.02-19.98-24.74-2.46-26.69-34.44-3.77-40.75Z"
        fill="#0C0C43"
    ></path>
    <path
        d="M860.35,133.35c-6.2,6.67-4.3,15.94,3.35,20.45,26.09,15.41,75.92,3.77,88.58,43.42,21.66,67.8-94.54,89.75-129.25,45.25-9.74-12.49-11.64-34.2,7.72-37.25,14.44-2.27,19.69,12.27,30.34,19.18,13.05,8.47,38.6,11.86,49.43-1.39,10.95-13.4-3.94-21.34-15.31-24.74-30.11-8.99-76.51-7.09-79.2-49.8-3.79-60.3,92.82-72.84,124.96-32.97,8.94,11.09,12.89,31.64-4.26,36.7-17.33,5.11-20.64-10.18-31.81-18.63-10.99-8.32-34.59-10.97-44.56-.24Z"
        fill="#0C0C43"
    ></path>
    <path
        d="M729.78,92.27c22.65-.19,57.26,10.47,64.7,34.76,5.66,18.5-12.07,33.9-26.97,22.97-10.81-7.93-11.66-18.39-28.47-22.53-13.27-3.26-37.43-.33-35.07,18.08,1.01,7.89,13.18,11.38,19.83,13.16,26.42,7.06,66.46,6.65,75.68,39.32,19.51,69.1-97.23,88.4-130.3,43.3-7.57-10.32-10.85-28.01,3.26-34.39,16.95-7.66,22.23,7.85,33.23,15.9,13.33,9.75,46.73,15.07,54.23-3.43,5.16-12.72-7.85-18.18-17.68-21.12-26.77-8-68.8-6.73-77.57-40.43-10.84-41.65,28.9-65.28,65.13-65.58Z"
        fill="#0C0C43"
    ></path>
    <path
        d="M503.74,93.25c11.13-1.71,20.42,4.68,23.02,15.49,2.11,27.91-1.99,58.18.2,85.8,3.59,45.32,68.57,43.74,72.07,3,2.3-26.73-2.65-57.48-.03-84.03,2.68-27.08,38.53-28.19,41.03.95,1.83,21.32,2.08,70.32-1.29,90.78-13.68,83.28-144.85,79.24-151.73-4.76-2.37-28.88,1.74-60.78-.02-89.99.94-8.67,8.18-15.93,16.74-17.25Z"
        fill="#0C0C43"
    ></path>
    <path
        d="M62.74,113.24c13.7-2.33,27.6,4.48,29.26,19.26,2.99,26.61-2.17,58.72-.09,85.92-6.44,27.02-44.06,24.82-46.9-3.92-2.49-25.16,1.74-54.29.1-79.88,1.12-9.18,7.99-19.73,17.63-21.37Z"
        fill="#0C0C43"
    ></path>
    <path
        d="M438.01,113.49c-66.09-57.77-169.06,7.15-140.05,95.05,20.4,61.8,109.73,76.92,151.01,28.94,8.7-10.11,14.91-26.98-1.26-33.68-17.05-7.06-22.42,7.77-32.8,15.62-27.82,21.04-71.35,9.55-79.91-25.41h115.5c4.57,0,13-8.03,14.55-12.45,7.18-20.45-11.68-54.64-27.04-68.06ZM336,161c13.1-43.34,75.35-43.98,88,0h-88Z"
        fill="#0C0C43"
    ></path>
</svg>
